<?xml version="1.0" encoding="UTF-8" standalone="no"?>
<svg
   xmlns="http://www.w3.org/2000/svg"
   viewBox="0 0 72 72"
   version="1.1"
   width="72"
   height="72">
  <g>
    <path
       d="M 36,4 C 18.327,4 4,18.327 4,36 4,53.673 18.327,68 36,68 53.673,68 68,53.673 68,36 68,18.327 53.673,4 36,4 Z m 0,4 c 15.512,0 28,12.488 28,28 0,15.512 -12.488,28 -28,28 C 20.488,64 8,51.512 8,36 8,20.488 20.488,8 36,8 Z"
       style="fill:#ffffff;fill-opacity:1;stroke:none;stroke-width:4" />
    <path
       d="m 24,20 v 32 h 24 V 20 Z m 4,4 h 16 v 24 H 28 Z"
       style="fill:#ffffff;fill-opacity:1;stroke:none;stroke-width:1px" />
    <path
       d="m 32,28 v 8 h 8 v -8 z"
       style="fill:#ffffff;fill-opacity:1;stroke:none;stroke-width:1px" />
    <path
       d="m 36,40 -8,8 h 16 z"
       style="fill:#ffffff;fill-opacity:1;stroke:none;stroke-width:1px" />
    <path
       d="m 20,36 -8,8 h 16 z"
       style="fill:#ffffff;fill-opacity:1;stroke:none;stroke-width:1px" />
    <path
       d="m 52,36 -8,8 h 16 z"
       style="fill:#ffffff;fill-opacity:1;stroke:none;stroke-width:1px" />
  </g>
</svg> 