<?xml version="1.0" encoding="UTF-8" standalone="no"?>
<svg
   xmlns="http://www.w3.org/2000/svg"
   xmlns:svg="http://www.w3.org/2000/svg"
   version="1.1"
   width="72"
   height="72"
   viewBox="0 0 72 72"
   id="svg_tcp_transfer">
  <defs id="defs"></defs>
  <g id="layer1">
    <!-- 服务器图标 -->
    <rect
       style="fill:none;stroke:#ffffff;stroke-width:3;stroke-linecap:round;stroke-linejoin:round"
       width="20"
       height="30"
       x="8"
       y="21"
       ry="2"
       id="server" />
    <circle
       style="fill:#ffffff;stroke:none"
       cx="13"
       cy="26"
       r="2"
       id="server-led1" />
    <circle
       style="fill:#ffffff;stroke:none"
       cx="13"
       cy="33"
       r="2"
       id="server-led2" />
    <!-- 客户端设备图标 -->
    <rect
       style="fill:none;stroke:#ffffff;stroke-width:3;stroke-linecap:round;stroke-linejoin:round"
       width="22"
       height="16"
       x="43"
       y="28"
       ry="2"
       id="client" />
    <rect
       style="fill:none;stroke:#ffffff;stroke-width:2;stroke-linecap:round;stroke-linejoin:round"
       width="12"
       height="8"
       x="48"
       y="32"
       ry="1"
       id="screen" />
    <!-- 传输线 -->
    <path
       style="fill:none;stroke:#ffffff;stroke-width:3;stroke-linecap:round;stroke-linejoin:round"
       d="M 28,36 H 43"
       id="connection-line" />
    <!-- 数据传输箭头 -->
    <path
       style="fill:#ffffff;stroke:none"
       d="m 35,30 6,6 -6,6 v -4 h -6 v -4 h 6 z"
       id="data-arrow" />
    <!-- 文件图标 -->
    <g id="file-icon" transform="translate(0,2)">
      <path
         style="fill:none;stroke:#ffffff;stroke-width:2;stroke-linecap:round;stroke-linejoin:round"
         d="m 15,43 h 6 c 1,0 2,1 2,2 v 8 c 0,1 -1,2 -2,2 h -6 c -1,0 -2,-1 -2,-2 v -8 c 0,-1 1,-2 2,-2 z"
         id="file-body" />
      <path
         style="fill:none;stroke:#ffffff;stroke-width:1;stroke-linecap:round;stroke-linejoin:round"
         d="m 15,47 h 6 m -6,2 h 6 m -6,2 h 6"
         id="file-lines" />
    </g>
    <!-- TCP文本 -->
    <text
       xml:space="preserve"
       style="font-size:10px;font-weight:bold;fill:#ffffff;stroke:none;font-family:Arial"
       x="36"
       y="24"
       id="tcp-text"
       text-anchor="middle">TCP</text>
  </g>
</svg> 